<svg width="16" height="16" viewBox="0 0 16 16" fill="none" xmlns="http://www.w3.org/2000/svg">
<g clip-path="url(#clip0_1202_1706)">
<path d="M14.6667 8.66659V11.3333C14.6667 13.6666 13.3333 14.6666 11.3333 14.6666H4.66668C2.66668 14.6666 1.33334 13.6666 1.33334 11.3333V8.66659C1.33334 6.89992 2.10001 5.89994 3.33334 5.51994C3.73334 5.39327 4.18001 5.33325 4.66668 5.33325H11.3333C11.82 5.33325 12.2667 5.39327 12.6667 5.51994C13.9 5.89994 14.6667 6.89992 14.6667 8.66659Z" stroke="#2E2E2E" stroke-width="1.5" stroke-miterlimit="10" stroke-linecap="round" stroke-linejoin="round"/>
<path d="M12.6667 4.66659V5.51994C12.2667 5.39327 11.82 5.33325 11.3333 5.33325H4.66668C4.18001 5.33325 3.73334 5.39327 3.33334 5.51994V4.66659C3.33334 3.93325 3.93334 3.33325 4.66668 3.33325H11.3333C12.0667 3.33325 12.6667 3.93325 12.6667 4.66659Z" stroke="#2E2E2E" stroke-width="1.5" stroke-miterlimit="10" stroke-linecap="round" stroke-linejoin="round"/>
<mask id="mask0_1202_1706" style="mask-type:alpha" maskUnits="userSpaceOnUse" x="4" y="6" width="8" height="8">
<path d="M12 6H4V14H12V6Z" fill="#D9D9D9"/>
</mask>
<g mask="url(#mask0_1202_1706)">
<path d="M6 8L10 12M6 12L10 8" stroke="#2E2E2E" stroke-width="1.5" stroke-linecap="round" stroke-linejoin="round"/>
</g>
<path d="M10.6667 2.33993V3.33325H5.33334V2.33993C5.33334 1.78659 5.78668 1.33325 6.34002 1.33325H9.66001C10.2133 1.33325 10.6667 1.78659 10.6667 2.33993Z" stroke="#2E2E2E" stroke-width="1.5" stroke-miterlimit="10" stroke-linecap="round" stroke-linejoin="round"/>
</g>
<defs>
<clipPath id="clip0_1202_1706">
<rect width="16" height="16" fill="white"/>
</clipPath>
</defs>
</svg>
