<svg width="16" height="16" viewBox="0 0 16 16" fill="none" xmlns="http://www.w3.org/2000/svg">
<path d="M6.00134 4.66659C6.00934 3.21659 6.07401 2.43125 6.58601 1.91925C7.17201 1.33325 8.11468 1.33325 10 1.33325H10.6667C12.5527 1.33325 13.4953 1.33325 14.0813 1.91925C14.6667 2.50459 14.6667 3.44792 14.6667 5.33325V10.6666C14.6667 12.5519 14.6667 13.4953 14.0813 14.0806C13.4947 14.6666 12.5527 14.6666 10.6667 14.6666H10C8.11468 14.6666 7.17201 14.6666 6.58601 14.0806C6.07401 13.5686 6.00934 12.7833 6.00134 11.3333" stroke="#2E2E2E" stroke-width="1.5" stroke-linecap="round"/>
<path d="M10 8H1.33334M1.33334 8L3.66668 6M1.33334 8L3.66668 10" stroke="#2E2E2E" stroke-width="1.5" stroke-linecap="round" stroke-linejoin="round"/>
</svg>
