<svg width="16" height="16" viewBox="0 0 16 16" fill="none" xmlns="http://www.w3.org/2000/svg">
<path d="M11.9867 7.19334V9.86001C11.9867 10.0333 11.98 10.2 11.96 10.36C11.8067 12.16 10.7467 13.0533 8.79335 13.0533H8.52668C8.36002 13.0533 8.20001 13.1333 8.10001 13.2667L7.30002 14.3333C6.94669 14.8067 6.37334 14.8067 6.02001 14.3333L5.22 13.2667C5.13333 13.1533 4.94001 13.0533 4.79335 13.0533H4.52668C2.40002 13.0533 1.33334 12.5267 1.33334 9.86001V7.19334C1.33334 5.24001 2.23335 4.18001 4.02668 4.02667C4.18668 4.00667 4.35335 4 4.52668 4H8.79335C10.92 4 11.9867 5.06667 11.9867 7.19334Z" stroke="#2E2E2E" stroke-width="1.5" stroke-miterlimit="10" stroke-linecap="round" stroke-linejoin="round"/>
<path d="M14.6533 4.52671V7.19338C14.6533 9.15338 13.7533 10.2067 11.96 10.36C11.98 10.2 11.9867 10.0334 11.9867 9.86005V7.19338C11.9867 5.06671 10.92 4.00004 8.79333 4.00004H4.52667C4.35334 4.00004 4.18667 4.00671 4.02667 4.02671C4.18001 2.23338 5.24001 1.33337 7.19334 1.33337H11.46C13.5867 1.33337 14.6533 2.40005 14.6533 4.52671Z" stroke="#2E2E2E" stroke-width="1.5" stroke-miterlimit="10" stroke-linecap="round" stroke-linejoin="round"/>
<path d="M8.99702 8.83333H9.00302" stroke="#2E2E2E" stroke-width="2" stroke-linecap="round" stroke-linejoin="round"/>
<path d="M6.66368 8.83333H6.66968" stroke="#2E2E2E" stroke-width="2" stroke-linecap="round" stroke-linejoin="round"/>
<path d="M4.33033 8.83333H4.33633" stroke="#2E2E2E" stroke-width="2" stroke-linecap="round" stroke-linejoin="round"/>
</svg>
