<svg width="16" height="16" viewBox="0 0 16 16" fill="none" xmlns="http://www.w3.org/2000/svg">
<path d="M14.44 6.95996L13.7867 9.74663C13.2267 12.1533 12.12 13.1266 10.04 12.9266C9.70667 12.9 9.34667 12.84 8.96001 12.7466L7.84001 12.48C5.06001 11.82 4.20001 10.4466 4.85334 7.65997L5.50667 4.86663C5.64001 4.29996 5.80001 3.80663 6.00001 3.39996C6.78001 1.78663 8.10667 1.3533 10.3333 1.87996L11.4467 2.13996C14.24 2.7933 15.0933 4.1733 14.44 6.95996Z" stroke="#2E2E2E" stroke-width="1.5" stroke-linecap="round" stroke-linejoin="round"/>
<path d="M10.04 12.9267C9.62668 13.2067 9.10668 13.44 8.47335 13.6467L7.42001 13.9934C4.77335 14.8467 3.38001 14.1334 2.52001 11.4867L1.66668 8.85336C0.813347 6.20669 1.52001 4.80669 4.16668 3.95336L5.22001 3.60669C5.49335 3.52002 5.75335 3.44669 6.00001 3.40002C5.80001 3.80669 5.64001 4.30002 5.50668 4.86669L4.85335 7.66002C4.20001 10.4467 5.06001 11.82 7.84001 12.48L8.96001 12.7467C9.34668 12.84 9.70668 12.9 10.04 12.9267Z" stroke="#2E2E2E" stroke-width="1.5" stroke-linecap="round" stroke-linejoin="round"/>
<path d="M8.4267 5.68665L11.66 6.50665" stroke="#2E2E2E" stroke-width="1.5" stroke-linecap="round" stroke-linejoin="round"/>
<path d="M7.77332 8.26672L9.70665 8.76006" stroke="#2E2E2E" stroke-width="1.5" stroke-linecap="round" stroke-linejoin="round"/>
</svg>
